REM DIRINDEX 1\2,1\3,1\4,1\5
REM DIRNAME folder01,folder02,folder03,folder04,folder05
TITLE ""
FILE "1Q_t_1317-1326.mp3" MP3
  TRACK 01 AUDIO
    TITLE "3:cjc004_4856"
    INDEX 01 00:00:00
  TRACK 02 AUDIO
    TITLE "0:"
    INDEX 01 00:00:72
  TRACK 03 AUDIO
    TITLE "4:cjc004_4857"
    INDEX 01 00:01:21
  TRACK 04 AUDIO
    TITLE "0:"
    INDEX 01 00:02:45
  TRACK 05 AUDIO
    TITLE "5:cjc004_4858"
    INDEX 01 00:02:73
  TRACK 06 AUDIO
    TITLE "0:"
    INDEX 01 00:07:19
  TRACK 07 AUDIO
    TITLE "3:cjc004_4859"
    INDEX 01 00:08:05
  TRACK 08 AUDIO
    TITLE "0:"
    INDEX 01 00:09:18
  TRACK 09 AUDIO
    TITLE "4:cjc004_4860"
    INDEX 01 00:09:44
  TRACK 10 AUDIO
    TITLE "0:"
    INDEX 01 00:11:13
  TRACK 11 AUDIO
    TITLE "5:cjc004_4861"
    INDEX 01 00:11:42
  TRACK 12 AUDIO
    TITLE "0:"
    INDEX 01 00:16:04
  TRACK 13 AUDIO
    TITLE "3:cjc004_4862"
    INDEX 01 00:16:59
  TRACK 14 AUDIO
    TITLE "0:"
    INDEX 01 00:18:01
  TRACK 15 AUDIO
    TITLE "4:cjc004_4863"
    INDEX 01 00:18:27
  TRACK 16 AUDIO
    TITLE "0:"
    INDEX 01 00:19:60
  TRACK 17 AUDIO
    TITLE "5:cjc004_4864"
    INDEX 01 00:20:08
  TRACK 18 AUDIO
    TITLE "0:"
    INDEX 01 00:24:33
  TRACK 19 AUDIO
    TITLE "3:cjc004_4865"
    INDEX 01 00:25:07
  TRACK 20 AUDIO
    TITLE "0:"
    INDEX 01 00:26:24
  TRACK 21 AUDIO
    TITLE "4:cjc004_4866"
    INDEX 01 00:26:48
  TRACK 22 AUDIO
    TITLE "0:"
    INDEX 01 00:27:67
  TRACK 23 AUDIO
    TITLE "5:cjc004_4867"
    INDEX 01 00:28:13
  TRACK 24 AUDIO
    TITLE "0:"
    INDEX 01 00:33:46
  TRACK 25 AUDIO
    TITLE "3:cjc004_4868"
    INDEX 01 00:34:30
  TRACK 26 AUDIO
    TITLE "0:"
    INDEX 01 00:35:45
  TRACK 27 AUDIO
    TITLE "4:cjc004_4869"
    INDEX 01 00:36:03
  TRACK 28 AUDIO
    TITLE "0:"
    INDEX 01 00:37:22
  TRACK 29 AUDIO
    TITLE "5:cjc004_4870"
    INDEX 01 00:37:52
  TRACK 30 AUDIO
    TITLE "0:"
    INDEX 01 00:42:39
  TRACK 31 AUDIO
    TITLE "3:cjc004_4871"
    INDEX 01 00:43:17
  TRACK 32 AUDIO
    TITLE "0:"
    INDEX 01 00:44:40
  TRACK 33 AUDIO
    TITLE "4:cjc004_4872"
    INDEX 01 00:44:60
  TRACK 34 AUDIO
    TITLE "0:"
    INDEX 01 00:46:00
  TRACK 35 AUDIO
    TITLE "5:cjc004_4873"
    INDEX 01 00:46:23
  TRACK 36 AUDIO
    TITLE "0:"
    INDEX 01 00:51:42
  TRACK 37 AUDIO
    TITLE "3:cjc004_4874"
    INDEX 01 00:52:18
  TRACK 38 AUDIO
    TITLE "0:"
    INDEX 01 00:53:45
  TRACK 39 AUDIO
    TITLE "4:cjc004_4875"
    INDEX 01 00:53:72
  TRACK 40 AUDIO
    TITLE "0:"
    INDEX 01 00:55:04
  TRACK 41 AUDIO
    TITLE "5:cjc004_4876"
    INDEX 01 00:55:24
  TRACK 42 AUDIO
    TITLE "0:"
    INDEX 01 00:59:38
  TRACK 43 AUDIO
    TITLE "3:cjc004_4877"
    INDEX 01 01:00:17
  TRACK 44 AUDIO
    TITLE "0:"
    INDEX 01 01:01:19
  TRACK 45 AUDIO
    TITLE "4:cjc004_4878"
    INDEX 01 01:01:42
  TRACK 46 AUDIO
    TITLE "0:"
    INDEX 01 01:02:52
  TRACK 47 AUDIO
    TITLE "5:cjc004_4879"
    INDEX 01 01:03:00
  TRACK 48 AUDIO
    TITLE "0:"
    INDEX 01 01:07:61
  TRACK 49 AUDIO
    TITLE "3:cjc004_4880"
    INDEX 01 01:08:38
  TRACK 50 AUDIO
    TITLE "0:"
    INDEX 01 01:09:56
  TRACK 51 AUDIO
    TITLE "4:cjc004_4881"
    INDEX 01 01:10:02
  TRACK 52 AUDIO
    TITLE "0:"
    INDEX 01 01:11:19
  TRACK 53 AUDIO
    TITLE "5:cjc004_4882"
    INDEX 01 01:11:45
  TRACK 54 AUDIO
    TITLE "0:"
    INDEX 01 01:15:15
  TRACK 55 AUDIO
    TITLE "3:cjc004_4883"
    INDEX 01 01:15:68
  TRACK 56 AUDIO
    TITLE "0:"
    INDEX 01 01:17:06
  TRACK 57 AUDIO
    TITLE "4:cjc004_4884"
    INDEX 01 01:17:35
  TRACK 58 AUDIO
    TITLE "0:"
    INDEX 01 01:18:51
  TRACK 59 AUDIO
    TITLE "5:cjc004_4885"
    INDEX 01 01:19:01
  TRACK 60 AUDIO
    TITLE "0:"
    INDEX 01 01:23:36
